<svg width="406" height="511.79999999999995" xmlns="http://www.w3.org/2000/svg" clip-rule="evenodd" fill-rule="evenodd" image-rendering="optimizeQuality" text-rendering="geometricPrecision" shape-rendering="geometricPrecision">

 <g>
  <title>Layer 1</title>
  <path id="svg_3" d="m288.64221,270.11126c-10.12752,-20.11144 -22.53232,-36.38851 -34.96889,-47.76771c-14.51135,11.67125 -32.18556,18.77095 -51.47311,18.77095c-19.29988,0 -36.99952,-7.12082 -51.49204,-18.77095c-12.43655,11.37919 -24.84125,27.65627 -35.00691,47.76771c-23.57632,46.6699 -26.18247,94.54826 -5.81979,106.9696c9.12181,5.59218 18.69284,1.41726 28.57369,-9.03112c-1.73963,10.59415 -2.77076,22.08448 -2.77076,34.1097c0,53.3947 18.88884,96.64626 42.17424,96.64626c14.02428,0 20.97644,-15.75543 24.30992,-39.86842c3.33362,24.11299 10.27929,39.86842 24.27229,39.86842c23.31679,0 42.20557,-43.25156 42.20557,-96.64626c0,-12.02522 -1.01203,-23.51555 -2.78319,-34.1097c9.91244,10.44838 19.46433,14.6233 28.60504,9.03112c20.39455,-12.42136 17.75652,-60.2997 -5.82606,-106.9696zm-86.46091,-47.20465c39.18836,0 70.95639,-34.8949 70.95639,-77.92445s-31.76803,-77.92418 -70.95639,-77.92418c-39.18204,0 -70.97548,34.88761 -70.97548,77.92418s31.79342,77.92445 70.97548,77.92445zm48.4746,-159.94741c20.47659,8.28087 8.15388,-13.20632 8.15388,-27.88523s12.63901,-32.62999 -8.15388,-25.32856c-21.82403,7.68316 -39.5173,11.90701 -39.5173,26.60672s17.69328,17.77052 39.5173,26.60707zm-48.34172,-10.45513c12.96788,0 5.72484,-7.21099 5.72484,-16.09623c0,-8.89207 7.26201,-16.08232 -5.72484,-16.08232s-6.19938,7.21104 -6.19938,16.08232c0,8.90599 -6.7687,16.09623 6.19938,16.09623zm-48.62013,10.45513c21.82405,-8.81587 39.51716,-11.91418 39.51716,-26.60707s-17.69311,-18.92356 -39.51716,-26.60672c-20.79291,-7.32225 -8.1603,10.63558 -8.1603,25.32856s-12.3353,36.15213 8.1603,27.88523z" stroke="#000" fill="#FFAAB8"/>
 </g>
</svg>