<svg width="800" height="600" xmlns="http://www.w3.org/2000/svg">
 <g id="Layer_1">
  <title>Layer 1</title>
  <path id="svg_7" d="m444.33021,276.08279c-8.64513,-14.46629 -19.23422,-26.17449 -29.85042,-34.35962c-12.38729,8.39521 -27.47449,13.50207 -43.93888,13.50207c-16.47491,0 -31.58382,-5.12205 -43.95504,-13.50207c-10.61619,8.18512 -21.20518,19.89333 -29.88287,34.35962c-20.1254,33.56997 -22.35009,68.00918 -4.96793,76.94393c7.78663,4.02249 15.95673,1.01945 24.3913,-6.49614c-1.48499,7.62044 -2.3652,15.88551 -2.3652,24.53533c0,38.40715 16.12404,69.51828 36.0011,69.51828c11.97152,0 17.90608,-11.33299 20.75163,-28.67761c2.84567,17.34463 8.77469,28.67761 20.7195,28.67761c19.90386,0 36.02785,-31.11113 36.02785,-69.51828c0,-8.64982 -0.86389,-16.91489 -2.3758,-24.53533c8.46154,7.51559 16.61529,10.51863 24.41805,6.49614c17.40936,-8.93476 15.15747,-43.37396 -4.97329,-76.94393zm-73.80544,-33.95461c33.45227,0 60.57035,-25.10012 60.57035,-56.05156s-27.11808,-56.05138 -60.57035,-56.05138c-33.44689,0 -60.58665,25.09489 -60.58665,56.05138s27.13975,56.05156 60.58665,56.05156zm41.37927,-115.05121c17.47939,5.95648 6.96038,-9.49939 6.96038,-20.05803s10.78901,-23.47097 -6.96038,-18.219c-18.6296,5.52655 -33.73307,8.56479 -33.73307,19.13839s15.10348,12.78245 33.73307,19.13864zm-41.26584,-7.52045c11.06974,0 4.88688,-5.18691 4.88688,-11.57812c0,-6.39612 6.19905,-11.56812 -4.88688,-11.56812s-5.29196,5.18695 -5.29196,11.56812c0,6.40613 -5.77795,11.57812 5.29196,11.57812zm-41.50349,7.52045c18.62962,-6.34132 33.73295,-8.56995 33.73295,-19.13864s-15.10333,-13.61184 -33.73295,-19.13839c-17.74941,-5.26694 -6.96586,7.65024 -6.96586,18.219s-10.52976,26.00447 6.96586,20.05803z" stroke="#000" fill="#FFAAB8"/>
  <path id="svg_8" d="m393.37057,295.84053c-7.56413,-5.82675 -10.2686,-9.51265 -10.29052,-14.02486c-0.01999,-4.11343 3.31855,-8.08349 6.77835,-8.0606c1.72767,0.01146 5.43364,1.52542 6.74594,2.7559c0.66121,0.61998 0.97439,0.55885 2.44651,-0.47759c4.00648,-2.82074 7.91885,-2.87994 10.45268,-0.15817c4.04959,4.34997 3.31232,9.54462 -2.11941,14.93288c-2.88782,2.86471 -9.19417,7.94687 -9.86112,7.94687c-0.20294,0 -2.07153,-1.3115 -4.15243,-2.91443l0,0z" stroke="#000" fill="#884D58"/>
  <text stroke="#000" transform="matrix(3.9983 0 0 4.32187 -902.339 -1577.41)" xml:space="preserve" text-anchor="start" font-family="Noto Sans JP" font-size="24" stroke-width="0" id="svg_9" y="483.74158" x="295.49766" fill="#000000">DNK</text>
 </g>
</svg>